<?xml version="1.0"?><svg width="491.237793" height="452.9882813" xmlns="http://www.w3.org/2000/svg">

 <g>
  <title>Layer 1</title>
  <g fill-rule="nonzero" clip-rule="nonzero" fill="#0F238C" stroke="#000000" stroke-miterlimit="4" id="Vrstva_x0020_1">
   <g fill-rule="evenodd" clip-rule="evenodd" id="g3470">
    <path fill="#00007f" id="path3472" d="m339.390747,270.780426c-4.724548,6.839111 -11.220612,14.294434 -18.749695,21.171143c-8.183411,7.474945 -17.104462,13.851471 -23.178864,17.126343l137.826477,125.91037l41.949188,-38.316284l-137.847107,-125.891571z"/>
    <path fill="#00007f" id="path3474" d="m304.82959,63.058109c-65.175781,-60.07764 -169.791016,-60.07764 -234.966309,0c-65.150881,60.100582 -65.150881,156.570309 0,216.671383c65.175293,60.100586 169.790527,60.100586 234.966309,0c65.175781,-60.101074 65.175781,-156.570801 0,-216.671383zm-34.198242,31.535152c-46.204102,-42.606934 -120.390625,-42.606934 -166.570305,0c-46.204594,42.583496 -46.204594,110.994141 0,153.601074c46.17968,42.606445 120.366203,42.606445 166.570305,0c46.205078,-42.606934 46.205078,-111.017578 0,-153.601074z"/>
   </g>
  </g>
 </g>
</svg>